<?xml version="1.0" encoding="UTF-8" standalone="no"?>
<!-- Generator: Adobe Illustrator 27.2.0, SVG Export Plug-In . SVG Version: 6.00 Build 0)  -->

<svg
   version="1.1"
   id="Layer_1"
   x="0px"
   y="0px"
   viewBox="0 0 413.47 95.73"
   style="enable-background:new 0 0 413.47 95.73;"
   xml:space="preserve"
   sodipodi:docname="Firepay_Logo_fundo_claro.svg"
   inkscape:version="1.1.2 (0a00cf5339, 2022-02-04)"
   xmlns:inkscape="http://www.inkscape.org/namespaces/inkscape"
   xmlns:sodipodi="http://sodipodi.sourceforge.net/DTD/sodipodi-0.dtd"
   xmlns="http://www.w3.org/2000/svg"
   xmlns:svg="http://www.w3.org/2000/svg"><defs
   id="defs1003" /><sodipodi:namedview
   id="namedview1001"
   pagecolor="#ffffff"
   bordercolor="#666666"
   borderopacity="1.0"
   inkscape:pageshadow="2"
   inkscape:pageopacity="0.0"
   inkscape:pagecheckerboard="0"
   showgrid="false"
   inkscape:zoom="1.8840545"
   inkscape:cx="206.735"
   inkscape:cy="47.76932"
   inkscape:window-width="1366"
   inkscape:window-height="688"
   inkscape:window-x="0"
   inkscape:window-y="0"
   inkscape:window-maximized="1"
   inkscape:current-layer="Layer_1" />
<style
   type="text/css"
   id="style970">
	.st0{fill:#1D3D91;}
	.st1{fill:#78C1E1;}
	.st2{fill:#4289C9;}
</style>

<g
   id="g1220"
   inkscape:export-filename="/opt/lampp/htdocs/projetobetaonline/img/logo_claro.png"
   inkscape:export-xdpi="96"
   inkscape:export-ydpi="96"><g
     id="g990">
	<g
   id="g988">
		<polygon
   class="st0"
   points="122.18,15.5 117.93,15.5 117.93,77.32 129.58,77.32 129.58,52.79 153.86,52.79 153.86,41.56     129.58,41.56 129.58,26.73 158.54,26.73 158.54,15.5 129.58,15.5   "
   id="polygon972" />
		<rect
   x="168.58"
   y="15.5"
   class="st0"
   width="11.65"
   height="11.65"
   id="rect974" />
		<rect
   x="168.58"
   y="33.19"
   class="st0"
   width="11.65"
   height="44.13"
   id="rect976" />
		<path
   class="st0"
   d="M215.99,32.55c-2.32,0-4.46,0.74-6.4,2.21c-1.5,1.14-2.78,2.62-3.85,4.44v-6.01h-12.5v44.13h12.5V52.36    c0-2.69,0.64-4.8,1.93-6.31c1.29-1.52,3.11-2.27,5.46-2.27c1.08,0,2.03,0.14,2.87,0.42s1.52,0.71,2.06,1.28l6.8-9.48    c-1.11-1.13-2.4-1.99-3.89-2.57C219.5,32.84,217.83,32.55,215.99,32.55z"
   id="path978" />
		<path
   class="st0"
   d="M249.88,32.55c-6.18,0-10.96,1.8-14.35,5.4c-3.39,3.6-5.08,8.69-5.08,15.26v4.97c0,6.29,1.76,11.16,5.29,14.6    s8.5,5.17,14.9,5.17c2.92,0,5.81-0.57,8.67-1.72c2.86-1.15,5.44-2.77,7.74-4.87l-7.61-6.76c-1.25,1.02-2.64,1.81-4.17,2.36    c-1.53,0.55-3.08,0.83-4.63,0.83c-3.03,0-5.39-0.82-7.08-2.47c-1.36-1.33-2.16-3.1-2.43-5.31h27.06v-2.89    c0-7.79-1.59-13.84-4.78-18.13C260.24,34.7,255.72,32.55,249.88,32.55z M241.06,52.15c0.1-2.77,0.86-4.94,2.3-6.5    c1.54-1.67,3.72-2.51,6.53-2.51c2.18,0,3.91,0.7,5.19,2.1c1.28,1.4,2.07,3.37,2.38,5.89l0.13,1.02H241.06z"
   id="path980" />
		<path
   class="st0"
   d="M302.49,32.55c-2.35,0-4.5,0.7-6.44,2.1c-1.49,1.08-2.76,2.51-3.81,4.28v-5.75h-11.65v62.07h11.65V71.71    c0.88,1.77,2.06,3.21,3.57,4.27c1.87,1.32,4.1,1.98,6.67,1.98c4.73,0,8.39-1.66,10.97-5c2.58-3.33,3.87-8.03,3.87-14.09v-7.06    c0-6.12-1.29-10.86-3.87-14.22C310.88,34.23,307.22,32.55,302.49,32.55z M305.67,58.87c0,2.64-0.6,4.68-1.81,6.12    c-1.21,1.45-2.9,2.17-5.08,2.17c-1.39,0-2.57-0.27-3.55-0.81c-0.98-0.54-1.72-1.32-2.23-2.34c-0.51-1.02-0.77-2.25-0.77-3.7V50.4    c0-1.5,0.25-2.78,0.77-3.83c0.51-1.05,1.25-1.85,2.23-2.4c0.98-0.55,2.16-0.83,3.55-0.83c2.18,0,3.88,0.74,5.08,2.23    c1.2,1.49,1.81,3.58,1.81,6.27V58.87z"
   id="path982" />
		<path
   class="st0"
   d="M346.75,32.55c-3.51,0-6.72,0.56-9.61,1.68c-2.89,1.12-5.22,2.69-6.97,4.7l7.23,7.1    c1.25-0.99,2.68-1.75,4.29-2.27c1.62-0.52,3.25-0.79,4.89-0.79c2.49,0,4.42,0.55,5.78,1.66s2.04,2.68,2.04,4.72v1.87h-10.67    c-5.24,0-9.18,1.08-11.8,3.25c-2.62,2.17-3.93,5.45-3.93,9.84c0,4.62,1.18,8.05,3.53,10.29s5.88,3.36,10.59,3.36    c2.07,0,4.07-0.26,6.02-0.79c1.94-0.52,3.58-1.33,4.91-2.42c0.57-0.46,1-0.99,1.36-1.56v4.13H365V48.96    c0-5.21-1.59-9.25-4.76-12.12C357.06,33.98,352.56,32.55,346.75,32.55z M352.11,67.5c-1.53,0.71-3.84,1.06-6.93,1.06    c-2.21,0-3.88-0.35-5-1.04s-1.68-1.76-1.68-3.21c0-1.42,0.44-2.47,1.32-3.17c0.88-0.69,2.2-1.04,3.95-1.04h10.63v4.08    C354.41,65.69,353.64,66.79,352.11,67.5z"
   id="path984" />
		<path
   class="st0"
   d="M402.5,33.19l-8.85,25.8l-9.98-25.8H372.7l15.79,40.85l-2.35,6.85c-0.45,1.28-1.1,2.18-1.93,2.72    c-0.84,0.54-1.86,0.81-3.08,0.81h-2.59v11.31h2.59c3.46,0,6.17-0.59,8.12-1.76c1.96-1.18,3.49-3.28,4.59-6.31l19.64-54.46    L402.5,33.19L402.5,33.19z"
   id="path986" />
	</g>
</g><g
     id="g998">
	<path
   class="st1"
   d="M80.1,89.49H43.61c-4.95,0-9-4.05-9-9V9c0-4.95,4.05-9,9-9H80.1c4.95,0,9,4.05,9,9v71.49   C89.1,85.44,85.05,89.49,80.1,89.49z"
   id="path992" />
	<path
   class="st2"
   d="M75.13,89.49c-3.84-0.55-6.82-4.13-6.94-8.5h-0.01v-3.57V29.93v-0.6c0-6.02-4.27-10.98-9.62-11.38   c-0.42-0.06-0.85-0.09-1.29-0.09h-34.6c-6,0-10.91,5.43-10.91,12.07v47.49c0,6.64,4.91,12.07,10.91,12.07h34.6   c0.32,0,0.64-0.02,0.95-0.05h9.96v0.05H75.13z"
   id="path994" />
	<path
   class="st0"
   d="M49.07,89.49c-2.97-0.43-5.28-3.2-5.38-6.58h-0.01v-2.76V43.37V42.9c0-4.66-3.31-8.5-7.45-8.81   c-0.33-0.04-0.66-0.07-1-0.07H8.45C3.8,34.02,0,38.23,0,43.37v36.77c0,5.14,3.8,9.35,8.45,9.35h26.79c0.25,0,0.49-0.02,0.74-0.04   h7.71v0.04H49.07z"
   id="path996" />
</g></g>
</svg>
